<?xml version="1.0" encoding="utf-8"?>
<!-- Generator: Adobe Illustrator 27.2.0, SVG Export Plug-In . SVG Version: 6.00 Build 0)  -->
<svg version="1.1" id="Layer_1" xmlns="http://www.w3.org/2000/svg" xmlns:xlink="http://www.w3.org/1999/xlink" x="0px" y="0px"
	 viewBox="0 0 682.5 1027.9" style="enable-background:new 0 0 682.5 1027.9;" xml:space="preserve">
<style type="text/css">
	.st0{clip-path:url(#SVGID_00000108296068409631811950000015620596893418970807_);}
	.st1{fill:#EC71EA;}
	.st2{fill:#89F955;}
	.st3{fill:#FDF65B;}
	.st4{fill:#FFFFFF;}
</style>
<rect width="682.5" height="1027.9"/>
<g>
	<g>
		<defs>
			<rect id="SVGID_1_" x="2.2" y="1601.5" width="1917.8" height="1021.5"/>
		</defs>
		<clipPath id="SVGID_00000164494871874727898620000006519725069678465957_">
			<use xlink:href="#SVGID_1_"  style="overflow:visible;"/>
		</clipPath>
		<g style="clip-path:url(#SVGID_00000164494871874727898620000006519725069678465957_);">
			<defs>
				
					<rect id="SVGID_00000031910605144293838220000017819480147644667806_" x="-560.1" y="1508.7" transform="matrix(0.7716 -0.6361 0.6361 0.7716 -1635.355 1072.179)" width="2471" height="2609.7"/>
			</defs>
			<clipPath id="SVGID_00000081616462044561453000000003742821438238169985_">
				<use xlink:href="#SVGID_00000031910605144293838220000017819480147644667806_"  style="overflow:visible;"/>
			</clipPath>
		</g>
	</g>
</g>
<image style="overflow:visible;" width="2000" height="2000" xlink:href="../SUNDAY AFTERNOON Dropbox/Working Projects/COLORFUL_2023/Rebrand/01_Identity/01_Client Delivery/_badges/COLORFUL_Oneclub_Badge.png"  transform="matrix(8.237232e-02 0 0 8.237232e-02 74.9434 56.361)">
</image>
<g>
	<path class="st1" d="M89.8,470.9c-3.6-3.6-5.4-8.8-5.4-15.6v-33.6l9.6-6.5v-0.4l-9.6-6.5v-33.6c0-6.9,1.8-12.1,5.4-15.7
		c3.6-3.6,8.8-5.3,15.6-5.3h18.2c6.9,0,12.1,1.8,15.7,5.3c3.6,3.6,5.3,8.8,5.3,15.7V401h-25.2v-21.4c0-3.3-1.6-4.9-4.9-4.9
		c-3.3,0-4.9,1.6-4.9,4.9v28.7l-9.6,6.5v0.4l9.6,6.5v28.7c0,3.3,1.6,4.9,4.9,4.9c3.3,0,4.9-1.6,4.9-4.9v-21.4h25.2v26.3
		c0,6.8-1.8,12-5.3,15.6c-3.6,3.6-8.8,5.4-15.7,5.4h-18.2C98.7,476.4,93.5,474.6,89.8,470.9z"/>
	<path class="st1" d="M156.1,470.9c-3.6-3.6-5.4-8.8-5.4-15.6v-33.6l9.6-6.5v-0.4l-9.6-6.5v-33.6c0-6.9,1.8-12.1,5.4-15.7
		c3.6-3.6,8.8-5.3,15.6-5.3h18.2c6.9,0,12.1,1.8,15.7,5.3c3.6,3.6,5.3,8.8,5.3,15.7v33.6l-9.6,6.5v0.4l9.6,6.5v33.6
		c0,6.8-1.8,12-5.3,15.6c-3.6,3.6-8.8,5.4-15.7,5.4h-18.2C164.9,476.4,159.7,474.6,156.1,470.9z M185.7,450.4v-28.7l9.6-6.5v-0.4
		l-9.6-6.5v-28.7c0-3.3-1.6-4.9-4.9-4.9c-3.3,0-4.9,1.6-4.9,4.9v28.7l-9.6,6.5v0.4l9.6,6.5v28.7c0,3.3,1.6,4.9,4.9,4.9
		C184,455.4,185.7,453.7,185.7,450.4z"/>
	<path class="st1" d="M219.3,421.7l9.6-6.5v-0.4l-9.6-6.5v-54.7h25.2v54.7l-9.6,6.5v0.4l9.6,6.5v33.6h9.8v-31.5h25.2v52.6h-60.3
		V421.7z"/>
	<path class="st1" d="M289.9,470.9c-3.6-3.6-5.4-8.8-5.4-15.6v-33.6l9.6-6.5v-0.4l-9.6-6.5v-33.6c0-6.9,1.8-12.1,5.4-15.7
		c3.6-3.6,8.8-5.3,15.6-5.3h18.2c6.9,0,12.1,1.8,15.7,5.3c3.6,3.6,5.3,8.8,5.3,15.7v33.6l-9.6,6.5v0.4l9.6,6.5v33.6
		c0,6.8-1.8,12-5.3,15.6c-3.6,3.6-8.8,5.4-15.7,5.4h-18.2C298.7,476.4,293.5,474.6,289.9,470.9z M319.5,450.4v-28.7l9.6-6.5v-0.4
		l-9.6-6.5v-28.7c0-3.3-1.6-4.9-4.9-4.9c-3.3,0-4.9,1.6-4.9,4.9v28.7l-9.6,6.5v0.4l9.6,6.5v28.7c0,3.3,1.6,4.9,4.9,4.9
		C317.9,455.4,319.5,453.7,319.5,450.4z"/>
	<path class="st1" d="M353.2,421.7l9.6-6.5v-0.4l-9.6-6.5v-54.7h60.3V394h-25.2v-19.3h-9.8v33.6l-9.6,6.5v0.4l9.6,6.5v54.7h-25.2
		V421.7z M366,402.4h38.4v25.2H366V402.4z"/>
	<path class="st1" d="M424.1,470.9c-3.6-3.6-5.4-8.8-5.4-15.6v-33.6l9.6-6.5v-0.4l-9.6-6.5v-54.7h25.2v54.7l-9.6,6.5v0.4l9.6,6.5
		v28.7c0,3.3,1.6,4.9,4.9,4.9c3.3,0,4.9-1.6,4.9-4.9v-28.7l9.6-6.5v-0.4l-9.6-6.5v-54.7H479v54.7l-9.6,6.5v0.4l9.6,6.5v33.6
		c0,6.8-1.8,12-5.3,15.6c-3.6,3.6-8.8,5.4-15.7,5.4h-18.2C433,476.4,427.8,474.6,424.1,470.9z"/>
	<path class="st1" d="M488.1,421.7l9.6-6.5v-0.4l-9.6-6.5v-54.7h25.2v54.7l-9.6,6.5v0.4l9.6,6.5v33.6h9.8v-31.5h25.2v52.6h-60.3
		V421.7z"/>
	<path class="st1" d="M607.1,470.9c-3.6,3.6-8.8,5.4-15.7,5.4h-18.2c-6.8,0-12-1.8-15.6-5.4c-3.6-3.6-5.4-8.8-5.4-15.6v-19.3h25.2
		v14.4c0,3.3,1.6,4.9,4.9,4.9c3.3,0,4.9-1.6,4.9-4.9v-20c0-3.3-1.6-4.9-4.9-4.9h-11.6v-21h11.6c3.3,0,4.9-1.6,4.9-4.9v-20
		c0-3.3-1.6-4.9-4.9-4.9c-3.3,0-4.9,1.6-4.9,4.9V394h-25.2v-19.3c0-6.9,1.8-12.1,5.4-15.7c3.6-3.6,8.8-5.3,15.6-5.3h18.2
		c6.9,0,12.1,1.8,15.7,5.3c3.6,3.6,5.3,8.8,5.3,15.7v33.6l-9.6,6.5v0.4l9.6,6.5v33.6C612.5,462.1,610.7,467.3,607.1,470.9z
		 M557.5,415.9v-1.8l8.1-9.6h8.1l8.1,9.6v1.8l-8.1,9.6h-8.1L557.5,415.9z"/>
</g>
<g>
	<path class="st3" d="M84.4,628.2l9.6-6.5v-0.4l-9.6-6.5v-54.7h28.2l21.2,58.7h-13.3l19.8-58.7h28.2v54.7l-9.6,6.5v0.4l9.6,6.5v54.7
		h-22.8V582.2l6.3,5.3l-23,65.5h-5.3l-23-65.5l6.3-5.3v100.6H84.4V628.2z"/>
	<path class="st3" d="M182.3,677.4c-3.6-3.6-5.4-8.8-5.4-15.6v-33.6l9.6-6.5v-0.4l-9.6-6.5v-12.6c0-6.9,1.8-12.1,5.4-15.7
		c3.6-3.6,8.8-5.3,15.6-5.3h26.6v19.3h-17.5c-3.3,0-4.9,1.6-4.9,4.9v9.5l-9.6,6.5v0.4l9.6,6.5v28.7c0,3.3,1.6,4.9,4.9,4.9h8.1v5.4
		h-3.3l-9.5,15.6h-4.4C191.2,682.8,186,681,182.3,677.4z M221.6,682.8l-9.6-15.9v-38.7l9.6-6.5v-0.4l-9.6-6.5v-33.6h25.2v33.6
		l-9.6,6.5v0.4l9.6,6.5v54.7H221.6z"/>
	<path class="st3" d="M248.2,628.2l10-6.5v-0.4l-11.9-6.5l-4.6-33.6h25.6l3,31.9l2.6,38h2.1l2.8-38l2.8-31.9h25.6l-4.6,33.6
		l-11.9,6.5v0.4l10,6.5l-6.8,54.7h-37.8L248.2,628.2z M248.1,688.1h14.4c2.9,0,4.6-1.6,4.9-4.9l2.6-21h25.2l-2.6,24.2
		c-0.7,7-2.7,12.3-6,15.8c-3.3,3.5-8.3,5.3-15.1,5.3h-23.5V688.1z"/>
	<path class="st3" d="M342,628.2l9.6-6.5v-0.4l-9.6-6.5v-29.4l-12.3-11.6v-2.1l12.3-11.6h25.2v54.7l-9.6,6.5v0.4l9.6,6.5v54.7H342
		V628.2z"/>
	<path class="st3" d="M376.5,635.2c1.1-2.6,2.7-5.1,4.9-7.5l26.1-27.7c1.6-1.8,2.5-3.8,2.5-6.1v-7.7c0-3.3-1.6-4.9-4.9-4.9
		c-3.3,0-4.9,1.6-4.9,4.9v14.4h-25.2v-19.3c0-6.9,1.8-12.1,5.4-15.7c3.6-3.6,8.8-5.3,15.6-5.3h18.2c6.9,0,12.1,1.8,15.7,5.3
		c3.6,3.6,5.3,8.8,5.3,15.7v16.6c0,3.4-0.5,6.4-1.6,8.9c-1.1,2.6-2.7,5.1-4.9,7.5L402.6,642c-1.6,1.8-2.5,3.8-2.5,6.1v21l-4.2-7.4
		h14V645l11.6-12.3h2.1l11.6,12.3v37.8h-60.3v-38.7C374.9,640.7,375.4,637.7,376.5,635.2z"/>
</g>
<g>
	<path class="st2" d="M84.4,521.3l4.3-2.9v-0.2l-4.3-2.9v-24.6h17.7c3.1,0,5.5,0.8,7.1,2.4c1.6,1.6,2.4,4,2.4,7.1v36.3
		c0,3.1-0.8,5.4-2.4,7c-1.6,1.6-4,2.4-7.1,2.4H84.4V521.3z M99.4,535.7c0.5-0.5,0.8-1.2,0.8-2.1v-30.6c0-0.9-0.3-1.6-0.8-2.1
		c-0.5-0.5-1.2-0.7-2.1-0.7h-1.6v15.2l-4.3,2.9v0.2l4.3,2.9v15.2h1.6C98.2,536.4,98.9,536.2,99.4,535.7z"/>
	<path class="st2" d="M117.2,543.4c-1.6-1.6-2.4-4-2.4-7v-15.2l4.3-2.9v-0.2l-4.3-2.9v-5.7c0-3.1,0.8-5.5,2.4-7.1
		c1.6-1.6,4-2.4,7-2.4h8.2c3.1,0,5.5,0.8,7.1,2.4c1.6,1.6,2.4,4,2.4,7.1v17.4h-11.4v-16c0-1.5-0.7-2.2-2.2-2.2
		c-1.5,0-2.2,0.7-2.2,2.2v7.3h11.5v8.7h-11.5v8.1c0,1.5,0.7,2.2,2.2,2.2c1.5,0,2.2-0.7,2.2-2.2v-4.1h11.4v5.5c0,3.1-0.8,5.4-2.4,7
		c-1.6,1.6-4,2.4-7.1,2.4h-8.2C121.2,545.9,118.8,545.1,117.2,543.4z"/>
	<path class="st2" d="M147.3,543.4c-1.6-1.6-2.4-4-2.4-7v-15.2l4.3-2.9v-0.2l-4.3-2.9v-5.7c0-3.1,0.8-5.5,2.4-7.1
		c1.6-1.6,4-2.4,7-2.4h12v8.7h-7.9c-1.5,0-2.2,0.7-2.2,2.2v4.3l-4.3,2.9v0.2l4.3,2.9v13c0,1.5,0.7,2.2,2.2,2.2h3.6v2.4h-1.5l-4.3,7
		h-2C151.3,545.9,149,545.1,147.3,543.4z M165,545.9l-4.3-7.2v-17.5l4.3-2.9v-0.2l-4.3-2.9v-15.2h11.4v15.2l-4.3,2.9v0.2l4.3,2.9
		v24.6H165z"/>
	<path class="st2" d="M178.3,543.4c-1.6-1.6-2.4-4-2.4-7v-15.2l4.3-2.9v-0.2l-4.3-2.9v-5.7c0-3.1,0.8-5.5,2.4-7.1
		c1.6-1.6,4-2.4,7-2.4h12v8.7h-7.9c-1.5,0-2.2,0.7-2.2,2.2v4.3l-4.3,2.9v0.2l4.3,2.9v13c0,1.5,0.7,2.2,2.2,2.2h3.6v2.4h-1.5l-4.3,7
		h-2C182.3,545.9,179.9,545.1,178.3,543.4z M196,545.9l-4.3-7.2v-17.5l4.3-2.9v-0.2l-4.3-2.9v-24.6H203v24.6l-4.3,2.9v0.2l4.3,2.9
		v24.6H196z"/>
	<path class="st2" d="M207.4,521.3l4.3-2.9v-0.2l-4.3-2.9v-24.6h11.4v24.6l-4.3,2.9v0.2l4.3,2.9v24.6h-11.4V521.3z"/>
	<path class="st2" d="M223.2,490.6h11.4v7.3h-11.4V490.6z M223.2,521.3l4.3-2.9v-0.2l-4.3-2.9v-15.2h11.4v15.2l-4.3,2.9v0.2l4.3,2.9
		v24.6h-11.4V521.3z"/>
	<path class="st2" d="M254.8,521.3l4.3-2.9v-0.2l-4.3-2.9V511c0-1.5-0.7-2.2-2.2-2.2h-2.2v6.5l-4.3,2.9v0.2l4.3,2.9v24.6H239v-24.6
		l4.3-2.9v-0.2l-4.3-2.9v-15.2h17.7c3.1,0,5.5,0.8,7.1,2.4c1.6,1.6,2.4,4,2.4,7.1v5.7l-4.3,2.9v0.2l4.3,2.9v24.6h-11.4V521.3z"/>
	<path class="st2" d="M272.1,543.4c-1.6-1.6-2.4-4-2.4-7v-15.2l4.3-2.9v-0.2l-4.3-2.9v-5.7c0-3.1,0.8-5.5,2.4-7.1
		c1.6-1.6,4-2.4,7-2.4h8.2c3.1,0,5.5,0.8,7.1,2.4c1.6,1.6,2.4,4,2.4,7.1v17.4h-11.4v-16c0-1.5-0.7-2.2-2.2-2.2
		c-1.5,0-2.2,0.7-2.2,2.2v7.3h11.5v8.7h-11.5v8.1c0,1.5,0.7,2.2,2.2,2.2c1.5,0,2.2-0.7,2.2-2.2v-4.1h11.4v5.5c0,3.1-0.8,5.4-2.4,7
		c-1.6,1.6-4,2.4-7.1,2.4h-8.2C276.1,545.9,273.8,545.1,272.1,543.4z"/>
</g>
<g>
	<path class="st3" d="M440.9,564.3h30.8v11.5h-30.8V564.3z M449.4,621.8c-2.2-2.2-3.3-5.3-3.3-9.3v-20.1l5.8-3.9v-0.2l-5.8-3.9
		v-32.7h15.1v32.7l-5.8,3.9v0.2l5.8,3.9v18.2c0,2,1,2.9,2.9,2.9h7.5v11.5h-13C454.7,625.1,451.6,624,449.4,621.8z"/>
	<path class="st3" d="M495.2,592.4l5.8-3.9v-0.2l-5.8-3.9v-5.7c0-2-1-2.9-2.9-2.9h-2.9v8.6l-5.8,3.9v0.2l5.8,3.9v32.7h-15.1v-32.7
		l5.8-3.9v-0.2l-5.8-3.9v-32.7h15.1v12.6h8.4c4.1,0,7.3,1.1,9.4,3.2c2.1,2.1,3.2,5.3,3.2,9.4v7.5l-5.8,3.9v0.2l5.8,3.9v32.7h-15.1
		V592.4z"/>
</g>
</svg>
